<?xml version="1.0" encoding="UTF-8" standalone="no"?>
<!-- Created with Inkscape (http://www.inkscape.org/) -->
<svg id="dt_long" xmlns:rdf="http://www.w3.org/1999/02/22-rdf-syntax-ns#" xmlns="http://www.w3.org/2000/svg" xml:space="preserve" height="53" viewBox="0 0 420 53" width="420" version="1.1" xmlns:cc="http://creativecommons.org/ns#" xmlns:dc="http://purl.org/dc/elements/1.1/"><metadata id="metadata8"><rdf:RDF><cc:Work rdf:about=""><dc:format>image/svg+xml</dc:format><dc:type rdf:resource="http://purl.org/dc/dcmitype/StillImage"/><dc:title/></cc:Work></rdf:RDF></metadata><g id="g10" fill="#fff" transform="matrix(1.25,0,0,-1.25,0,53)"><g id="g4324" fill="#fff" transform="matrix(1.2386 0 0 1.2386 -41.3 -71.135)"><g id="g30" transform="matrix(2.3333 0 0 2.3333 50.862 74.412)"><path id="path32" fill="#fff" d="m0 0 0.73-3.406c0.604 1.212 0.859 2.539 0.859 3.521 0 1.02-0.271 2.232-0.905 3.174l-0.684-3.289zm-0.461-0.02 0.795 3.772c-0.636 1.212-2.923 1.559-4.003 1.559h-2.16v-10.603h3.399c0.938 0 1.795 0.192 2.733 1.251 0.015 0.076 0.047 0.096 0.047 0.191l-0.811 3.83zm-1.254-5.792h-4.558v11.661h2.604c0.064 0 0.715-0.058 1.048-0.097 1.303-0.115 2.971-0.5 3.987-2.674 0.127-0.269 0.302-0.674 0.398-1 0.19-0.654 0.269-1.463 0.269-1.963 0-1.674-0.555-4.233-2.303-5.33-0.349-0.23-1.048-0.597-1.445-0.597"/></g><g id="g34" transform="matrix(2.3333 0 0 2.3333 51.167 74.412)"><path id="path36" fill="#fff" d="m0 0 0.645-3.006c0.432 0.99 0.685 2.131 0.685 3.121 0 1.004-0.265 2.038-0.717 2.834l-0.613-2.949zm0.551-3.791-0.813 3.79 0.005 0.026 0.746 3.588 0.17-0.252c0.589-0.875 0.927-2.058 0.927-3.246 0-1.144-0.325-2.482-0.871-3.578l-0.164-0.328zm-6.383-1.373h3.271c0.933 0 1.737 0.202 2.616 1.184 0.007 0.021 0.013 0.039 0.02 0.056 0.011 0.028 0.016 0.04 0.016 0.074l-0.814 3.83 0.006 0.026 0.785 3.725c-0.599 1.056-2.681 1.451-3.868 1.451h-2.032v-10.346zm3.271-0.256h-3.527v10.858h2.288c0.907 0 3.416-0.292 4.116-1.627l0.022-0.041-0.01-0.045-0.789-3.745 0.805-3.802c0.003-0.111-0.016-0.158-0.031-0.196-0.005-0.013-0.011-0.029-0.015-0.048l-0.007-0.035-0.023-0.026c-0.952-1.073-1.819-1.293-2.829-1.293m-3.715-0.264h4.43c0.348 0 1.013 0.337 1.375 0.577 1.658 1.04 2.245 3.462 2.245 5.222 0 0.506-0.082 1.299-0.264 1.927-0.107 0.364-0.309 0.808-0.391 0.981-0.975 2.088-2.587 2.487-3.883 2.602-0.344 0.039-0.978 0.096-1.036 0.096h-2.476v-11.405zm4.43-0.255h-4.686v11.916h2.732c0.073 0 0.742-0.06 1.063-0.097 1.36-0.12 3.057-0.542 4.089-2.747 0.084-0.18 0.293-0.637 0.404-1.02 0.189-0.652 0.274-1.472 0.274-1.998 0-1.824-0.618-4.344-2.362-5.438-0.374-0.247-1.088-0.616-1.514-0.616"/></g><g id="g38" transform="matrix(2.3333 0 0 2.3333 69.627 87.518)"><path id="path40" fill="#fff" d="m0 0h-0.223v-11.102c2.843 0.346 4.161 3.137 4.161 5.541 0 1.868-0.682 4.041-2.748 5.176-0.078 0.039-0.919 0.385-1.19 0.385m-0.667 0h-0.223c-0.063 0-0.762-0.211-1.033-0.326-2.143-0.904-2.906-3.637-2.906-5.235 0-1.615 0.683-3.943 2.51-5.021 0.142-0.096 1.032-0.5 1.318-0.5h0.334v11.082zm-4.607-5.541c0 3.156 2.002 6.08 4.83 6.08 2.89 0 4.828-3.002 4.828-6.08 0-3.213-2.002-6.119-4.813-6.119-2.907 0-4.845 3.079-4.845 6.119"/></g><g id="g42" transform="matrix(2.3333 0 0 2.3333 67.564 87.22)"><path id="path44" fill="#fff" d="m0 0c-0.096-0.015-0.733-0.208-0.988-0.316-2.076-0.876-2.829-3.539-2.829-5.117 0-1.725 0.756-3.914 2.447-4.911 0.144-0.097 1.009-0.482 1.253-0.482h0.206v10.826h-0.089zm0.345-11.083h-0.462c-0.332 0-1.243 0.424-1.39 0.522-1.771 1.045-2.566 3.33-2.566 5.128 0 1.646 0.795 4.428 2.984 5.352 0.235 0.102 0.979 0.338 1.083 0.338h0.351v-11.34zm0.444 11.083v-10.826c1.908 0.305 3.905 2.096 3.905 5.393 0 1.08-0.261 3.734-2.681 5.065-0.093 0.045-0.897 0.368-1.129 0.368h-0.095zm-0.256-11.118v11.375h0.351c0.312 0 1.194-0.372 1.247-0.399 2.545-1.398 2.819-4.166 2.819-5.291 0-3.537-2.215-5.418-4.273-5.668l-0.144-0.017zm-0.094 11.657c-2.592 0-4.702-2.67-4.702-5.952 0-2.881 1.804-5.99 4.718-5.99 2.583 0 4.685 2.687 4.685 5.99 0 2.863-1.797 5.952-4.701 5.952m0.016-12.199c-3.072 0-4.974 3.243-4.974 6.247 0 3.424 2.224 6.209 4.958 6.209 3.062 0 4.957-3.223 4.957-6.209 0-3.444-2.216-6.247-4.941-6.247"/></g><g id="g46" transform="matrix(2.3333 0 0 2.3333 89.576 60.403)"><path id="path48" fill="#fff" d="m0 0c-1.619 0-2.986 1.25-3.431 3.771-0.048 0.308-0.127 1-0.127 1.059v7.234h0.445v-7.312c0-0.057 0.111-0.885 0.191-1.211 0.444-2.078 1.636-3.002 2.922-3.002 1.43 0 2.637 1.096 3.003 3.387 0.032 0.211 0.095 0.711 0.095 0.789v7.349h0.445v-7.388c0-0.327-0.207-1.386-0.223-1.444-0.572-2.27-1.937-3.232-3.32-3.232"/></g><g id="g50" transform="matrix(2.3333 0 0 2.3333 81.574 88.252)"><path id="path52" fill="#fff" d="m0 0v-7.105c0.002-0.057 0.076-0.724 0.126-1.04 0.404-2.293 1.639-3.662 3.304-3.662 1.507 0 2.701 1.172 3.196 3.135 0.017 0.067 0.219 1.1 0.219 1.412v7.26h-0.19v-7.221c0-0.091-0.065-0.611-0.095-0.808-0.351-2.19-1.521-3.496-3.13-3.496-1.493 0-2.632 1.16-3.047 3.103-0.077 0.313-0.195 1.158-0.195 1.238v7.184h-0.188zm3.43-12.064c-1.799 0-3.129 1.45-3.557 3.877-0.046 0.296-0.129 1.005-0.129 1.082v7.363h0.7v-7.442c0.003-0.068 0.113-0.87 0.188-1.181 0.395-1.846 1.415-2.904 2.798-2.904 1.472 0 2.548 1.226 2.876 3.279 0.036 0.234 0.093 0.709 0.093 0.769v7.479h0.702v-7.518c0-0.347-0.21-1.414-0.227-1.476-0.525-2.083-1.812-3.328-3.444-3.328"/></g><g id="g54" transform="matrix(2.3333 0 0 2.3333 107.19 69.606)"><path id="path56" fill="#fff" d="m0 0h-2.764v-3.155h3.098c0.953 0 2.334 1.193 2.478 2.578 0.032 0.289 0.094 0.865 0.094 0.943 0 0.558-0.127 1.289-0.539 1.828-0.476-1.347-1.668-2.194-2.367-2.194m-2.764 3.694v-3.155h2.653c0.81 0 1.89 0.904 2.16 2.155-0.492 0.673-1.891 1-2.621 1h-2.192zm1.78 3.752h-1.78v-3.213h2.16c0.779 0 2.113-0.308 2.828-0.981-0.016 0.385 0.032 0.751 0.032 0.827 0 1.078-0.492 2.655-1.954 3.233-0.318 0.115-0.969 0.134-1.286 0.134m1.27-11.14h-3.495v11.679h2.225c0.777 0 1.127-0.095 1.492-0.192 0.303-0.077 0.779-0.462 1.033-0.731 0.905-0.924 1.159-2.059 1.159-2.983 0-0.076-0.032-0.615-0.063-0.865 0-0.039-0.016-0.097-0.032-0.154-0.032-0.078-0.032-0.155-0.032-0.193s0.032-0.116 0.079-0.192l0.065-0.059c0.127-0.172 0.333-0.673 0.428-0.885 0.126-0.345 0.207-0.904 0.207-1.384 0-1.501-0.652-3.31-2.335-3.887-0.191-0.077-0.683-0.154-0.731-0.154"/></g><g id="g58" transform="matrix(2.3333 0 0 2.3333 101.04 79.785)"><path id="path60" fill="#fff" d="m0 0h2.032c0.649 0 1.889-0.23 2.697-0.835 0.004 0.179 0.018 0.335 0.027 0.444 0.004 0.051 0.008 0.089 0.008 0.108 0 1.181-0.579 2.602-1.873 3.113-0.254 0.092-0.808 0.125-1.24 0.125h-1.651v-2.955zm5-1.419-0.229 0.216c-0.693 0.652-2.019 0.945-2.739 0.945h-2.288v3.471h1.907c0.283 0 0.977-0.015 1.33-0.143 1.505-0.594 2.039-2.177 2.039-3.353 0-0.023-0.003-0.068-0.009-0.129-0.013-0.157-0.034-0.42-0.024-0.693l0.013-0.314zm-5-2.276h2.524c0.74 0 1.748 0.849 2.022 1.996-0.477 0.582-1.755 0.902-2.483 0.902h-2.063v-2.898zm2.524-0.256h-2.78v3.412h2.319c0.682 0 2.181-0.31 2.725-1.054l0.034-0.046-0.012-0.056c-0.287-1.33-1.435-2.256-2.286-2.256m-2.524-3.438h2.97c0.924 0 2.215 1.16 2.349 2.463 0.047 0.418 0.095 0.871 0.095 0.93 0 0.29-0.04 0.978-0.381 1.554-0.525-1.218-1.648-2.048-2.397-2.048h-2.636v-2.899zm2.97-0.257h-3.226v3.412h2.892c0.627 0 1.784 0.802 2.246 2.109l0.079 0.223 0.143-0.189c0.511-0.667 0.566-1.555 0.566-1.905 0-0.098-0.079-0.815-0.096-0.957-0.147-1.425-1.579-2.693-2.604-2.693m-3.415-0.282h3.365c0.06 0.003 0.515 0.075 0.684 0.145 1.667 0.57 2.255 2.387 2.255 3.767 0 0.477-0.08 1.016-0.199 1.342l-0.06 0.137c-0.096 0.219-0.256 0.586-0.351 0.716l-0.07 0.067c-0.036 0.06-0.098 0.172-0.098 0.259 0 0.046 0 0.141 0.042 0.241 0.005 0.024 0.022 0.084 0.022 0.106 0.031 0.261 0.063 0.791 0.063 0.865 0 0.797-0.195 1.946-1.123 2.892-0.269 0.286-0.716 0.631-0.973 0.698-0.379 0.099-0.715 0.187-1.461 0.187h-2.096v-11.422zm3.367-0.258h-3.623v11.938h2.352c0.78 0 1.148-0.098 1.504-0.191 0.376-0.097 0.881-0.526 1.116-0.774 0.986-1.006 1.193-2.225 1.193-3.07 0-0.08-0.031-0.621-0.065-0.882 0.001-0.04-0.015-0.104-0.034-0.171-0.028-0.07-0.028-0.128-0.028-0.159 0.002-0.008 0.017-0.05 0.052-0.11l0.049-0.045c0.129-0.172 0.284-0.527 0.397-0.786l0.062-0.142c0.132-0.36 0.218-0.934 0.218-1.438 0-1.465-0.634-3.394-2.421-4.007-0.197-0.081-0.708-0.163-0.772-0.163"/></g><g id="g62" transform="matrix(2.3333 0 0 2.3333 117.65 67.991)"><path id="path64" fill="#fff" d="m0 0v-2.521h2.064l-2.064 2.521zm-0.477-3.06v11.642h0.461v-7.736l2.795-3.367h2.098v-0.539h-5.354z"/></g><g id="g66" transform="matrix(2.3333 0 0 2.3333 117.95 62.408)"><path id="path68" fill="#fff" d="m0 0h1.666l-1.666 2.033v-2.033zm2.207-0.257h-2.463v3.009l2.463-3.009zm-2.684-0.282h5.098v0.282h-2.03l-0.038 0.046-2.824 3.403v7.654h-0.206v-11.385zm5.354-0.256h-5.609v11.898h0.716v-7.818l2.728-3.285h2.165v-0.795z"/></g><g id="g70" transform="matrix(2.3333 0 0 2.3333 130.96 60.94)"><path id="path72" fill="#fff" d="m0 0v11.68h5.909v-0.539h-5.464v-2.963h5.082v-0.539h-5.082v-1.116h5.098v-0.519h-5.098v-0.982h5.035v-0.538h-5.035v-3.945h5.623v-0.539h-6.068z"/></g><g id="g74" transform="matrix(2.3333 0 0 2.3333 131.26 61.241)"><path id="path76" fill="#fff" d="m0 0h5.812v0.281h-5.623v4.202h5.036v0.283h-5.036v1.238h5.098v0.262h-5.098v1.373h5.082v0.282h-5.082v3.22h5.464v0.281h-5.653v-11.422zm6.068-0.257h-6.324v11.937h6.165v-0.796h-5.464v-2.706h5.082v-0.796h-5.082v-0.859h5.098v-0.777h-5.098v-0.725h5.035v-0.794h-5.035v-3.688h5.623v-0.796z"/></g><g id="g78" transform="matrix(2.3333 0 0 2.3333 186.35 82.761)"><path id="path80" fill="#fff" d="m0 0v-9.39h-0.46v9.37h-3.478v0.54h7.385v-0.52h-3.447zm-3.938 2.271h7.386v-0.52h-7.386v0.52z"/></g><path id="path82" d="m177.46 87.145h16.637v0.616h-16.637v-0.616zm17.234-0.59733h-17.831v1.8083h17.831v-1.8083zm-9.1187-25.398h0.476v21.912h8.0453v0.609h-16.637v-0.65567h8.1153v-21.866zm1.0733-0.59733h-1.6683v21.863h-8.1177v1.8573h17.831v-1.813h-8.0453v-21.908z"/><g id="g84" transform="matrix(2.3333 0 0 2.3333 204.78 68.351)"><path id="path86" fill="#fff" d="m0 0c-0.238-0.078-0.46-0.116-0.763-0.174l1.24-2.52h0.858l-1.335 2.694zm-0.524 7.869-0.143 0.039h-2.668v-7.505h2.764c0.079 0 0.539 0.117 0.746 0.251 1.303 0.731 1.637 2.424 1.637 3.656 0 1.251-0.43 3.348-2.066 3.52-0.063 0-0.175 0.02-0.27 0.039m0.762-11.101c-0.032 0-0.286 0.556-0.587 1.192-0.334 0.673-0.714 1.442-0.953 1.886h-2.033v-3.041h-0.461v11.641h3.066c0.032 0 0.111-0.018 0.206-0.018 0.095-0.02 0.222-0.059 0.318-0.059 1.922-0.23 2.462-2.501 2.462-4.079 0-1.212-0.382-3.232-1.827-4.099 0.492-1.019 0.889-1.828 1.429-2.867 0.175-0.037 0.334-0.018 0.477-0.018v-0.538h-2.097z"/></g><g id="g88" transform="matrix(2.3333 0 0 2.3333 197.3 69.59)"><path id="path90" fill="#fff" d="m0 0h2.636c0.066 0.003 0.494 0.111 0.676 0.23 1.425 0.8 1.579 2.749 1.579 3.548 0 1.185-0.412 3.232-1.952 3.394-0.036 0.006-0.138 0.012-0.282 0.041l-0.134 0.035h-2.523v-7.248zm2.636-0.256h-2.892v7.761l2.829-0.005 0.143-0.039c0.141-0.027 0.208-0.033 0.237-0.033 1.623-0.171 2.193-2.073 2.193-3.65 0-0.845-0.166-2.905-1.702-3.767-0.211-0.138-0.696-0.267-0.808-0.267m1.128-2.842h0.571l-1.194 2.412c-0.162-0.046-0.322-0.078-0.507-0.114l1.13-2.298zm0.985-0.256h-1.145l-1.349 2.743 0.249 0.048c0.255 0.047 0.456 0.086 0.664 0.153l0.104 0.035 0.05-0.1 1.427-2.879zm-1.238-0.282h1.903v0.279c-0.094-0.003-0.209-0.011-0.376 0.025l-0.059 0.014-0.027 0.052c-0.541 1.039-0.934 1.84-1.431 2.871l-0.051 0.106 0.1 0.06c1.302 0.78 1.765 2.635 1.765 3.988 0 1.692-0.615 3.744-2.35 3.952-0.071-0.012-0.165 0.021-0.25 0.041l-0.078 0.019c-0.042-0.007-0.101 0.004-0.145 0.011-0.016 0.002-0.028 0.005-0.036 0.005h-2.937v-11.385h0.205v3.041h2.237l0.038-0.068c0.229-0.426 0.592-1.159 0.913-1.806l0.219-0.461c0.146-0.309 0.295-0.628 0.36-0.744m2.159-0.257h-2.225c-0.107 0-0.107 0-0.526 0.892l-0.217 0.456c-0.304 0.612-0.645 1.301-0.874 1.731h-1.828v-3.04h-0.717v11.897h3.194c0.015 0 0.04-0.002 0.071-0.007 0.035-0.005 0.082-0.012 0.135-0.012l0.111-0.022c0.071-0.017 0.151-0.035 0.207-0.035 1.916-0.23 2.59-2.41 2.59-4.208 0-0.504-0.088-3.033-1.79-4.146 0.465-0.961 0.844-1.73 1.349-2.705 0.08-0.011 0.185-0.012 0.281-0.008 0.038 0.001 0.075 0.002 0.111 0.002h0.128v-0.795z"/></g><g id="g92" transform="matrix(2.3333 0 0 2.3333 224.29 87.518)"><path id="path94" fill="#fff" d="m0 0h-0.223v-11.102c2.844 0.346 4.162 3.137 4.162 5.541 0 1.868-0.683 4.041-2.748 5.176-0.08 0.039-0.921 0.385-1.191 0.385m-0.668 0h-0.222c-0.063 0-0.762-0.211-1.032-0.326-2.144-0.904-2.907-3.637-2.907-5.235 0-1.615 0.683-3.943 2.51-5.021 0.143-0.096 1.032-0.5 1.318-0.5h0.333v11.082zm-4.605-5.541c0 3.156 2.001 6.08 4.828 6.08 2.89 0 4.829-3.002 4.829-6.08 0-3.213-2.001-6.119-4.814-6.119-2.906 0-4.843 3.079-4.843 6.119"/></g><g id="g96" transform="matrix(2.3333 0 0 2.3333 222.22 87.22)"><path id="path98" fill="#fff" d="m0 0c-0.087-0.013-0.72-0.202-0.987-0.316-2.076-0.876-2.83-3.539-2.83-5.117 0-1.726 0.756-3.914 2.447-4.911 0.145-0.096 1.012-0.482 1.253-0.482h0.205v10.826h-0.088zm0.344-11.083h-0.461c-0.329 0-1.242 0.424-1.39 0.522-1.771 1.044-2.566 3.33-2.566 5.128 0 1.646 0.795 4.428 2.985 5.352 0.234 0.102 0.977 0.338 1.082 0.338h0.35v-11.34zm0.445 11.083v-10.826c1.908 0.305 3.906 2.096 3.906 5.393 0 1.08-0.261 3.733-2.681 5.065-0.098 0.047-0.905 0.368-1.13 0.368h-0.095zm-0.256-11.118v11.375h0.351c0.309 0 1.182-0.367 1.247-0.398 2.546-1.4 2.82-4.167 2.82-5.292 0-3.537-2.216-5.418-4.274-5.668l-0.144-0.017zm-0.095 11.657c-2.591 0-4.7-2.67-4.7-5.952 0-2.881 1.803-5.99 4.716-5.99 2.583 0 4.686 2.687 4.686 5.99 0 2.863-1.798 5.952-4.702 5.952m0.016-12.199c-3.071 0-4.972 3.243-4.972 6.247 0 3.424 2.223 6.209 4.956 6.209 3.062 0 4.958-3.223 4.958-6.209 0-3.444-2.217-6.247-4.942-6.247"/></g><g id="g100" transform="matrix(2.3333 0 0 2.3333 244.24 60.403)"><path id="path102" fill="#fff" d="m0 0c-1.621 0-2.986 1.25-3.432 3.771-0.047 0.308-0.127 1-0.127 1.059v7.234h0.446v-7.312c0-0.057 0.111-0.885 0.189-1.211 0.445-2.078 1.637-3.002 2.924-3.002 1.43 0 2.637 1.096 3.002 3.387 0.031 0.211 0.096 0.711 0.096 0.789v7.349h0.444v-7.388c0-0.327-0.206-1.386-0.223-1.444-0.571-2.27-1.938-3.232-3.319-3.232"/></g><g id="g104" transform="matrix(2.3333 0 0 2.3333 236.23 88.252)"><path id="path106" fill="#fff" d="m0 0v-7.105c0.002-0.061 0.079-0.735 0.126-1.04 0.404-2.293 1.641-3.662 3.305-3.662 1.506 0 2.701 1.172 3.195 3.135 0.017 0.064 0.219 1.103 0.219 1.412v7.26h-0.189v-7.221c0-0.097-0.072-0.644-0.096-0.808-0.35-2.19-1.519-3.496-3.129-3.496-1.494 0-2.633 1.16-3.049 3.103-0.076 0.318-0.193 1.16-0.193 1.238v7.184h-0.189zm3.431-12.064c-1.799 0-3.129 1.45-3.558 3.877-0.046 0.302-0.129 1.011-0.129 1.082v7.363h0.701v-7.442c0.003-0.066 0.111-0.865 0.187-1.181 0.395-1.846 1.415-2.904 2.799-2.904 1.472 0 2.548 1.226 2.875 3.279 0.036 0.245 0.094 0.709 0.094 0.769v7.479h0.701v-7.518c0-0.342-0.21-1.418-0.228-1.478-0.523-2.081-1.811-3.326-3.442-3.326"/></g><g id="g108" transform="matrix(2.3333 0 0 2.3333 261.85 69.606)"><path id="path110" fill="#fff" d="m0 0h-2.764v-3.155h3.097c0.953 0 2.336 1.193 2.479 2.578 0.031 0.289 0.095 0.865 0.095 0.943 0 0.558-0.127 1.289-0.541 1.828-0.476-1.347-1.668-2.194-2.366-2.194m-2.764 3.694v-3.155h2.653c0.809 0 1.89 0.904 2.161 2.155-0.493 0.673-1.891 1-2.621 1h-2.193zm1.779 3.752h-1.779v-3.213h2.16c0.779 0 2.113-0.308 2.828-0.981-0.016 0.385 0.031 0.751 0.031 0.827 0 1.078-0.492 2.655-1.953 3.233-0.319 0.115-0.969 0.134-1.287 0.134m1.271-11.14h-3.494v11.679h2.223c0.779 0 1.129-0.095 1.494-0.192 0.301-0.077 0.777-0.462 1.032-0.731 0.905-0.924 1.159-2.059 1.159-2.983 0-0.076-0.031-0.615-0.063-0.865 0-0.039-0.016-0.097-0.033-0.154-0.031-0.078-0.031-0.155-0.031-0.193s0.031-0.116 0.08-0.192l0.063-0.059c0.127-0.172 0.334-0.673 0.43-0.885 0.126-0.345 0.206-0.904 0.206-1.384 0-1.501-0.652-3.31-2.335-3.887-0.191-0.077-0.684-0.154-0.731-0.154"/></g><g id="g112" transform="matrix(2.3333 0 0 2.3333 255.7 79.785)"><path id="path114" fill="#fff" d="m0 0h2.032c0.649 0 1.888-0.23 2.697-0.834 0.004 0.178 0.017 0.334 0.026 0.443 0.004 0.051 0.008 0.089 0.008 0.108 0 1.181-0.579 2.602-1.872 3.113-0.255 0.092-0.809 0.125-1.241 0.125h-1.65v-2.955zm5-1.419-0.229 0.216c-0.693 0.652-2.019 0.945-2.739 0.945h-2.288v3.471h1.906c0.283 0 0.977-0.015 1.331-0.143 1.505-0.595 2.038-2.177 2.038-3.353 0-0.023-0.003-0.067-0.008-0.129-0.013-0.156-0.034-0.419-0.024-0.693l0.013-0.314zm-5-2.276h2.524c0.74 0 1.748 0.849 2.023 1.996-0.478 0.582-1.756 0.902-2.483 0.902h-2.064v-2.898zm2.524-0.256h-2.78v3.412h2.32c0.681 0 2.18-0.31 2.725-1.054l0.034-0.046-0.012-0.056c-0.288-1.33-1.436-2.256-2.287-2.256m-2.524-3.438h2.969c0.916 0 2.22 1.194 2.35 2.463l0.017 0.144c0.027 0.254 0.079 0.727 0.079 0.786 0 0.291-0.04 0.979-0.383 1.555-0.525-1.219-1.647-2.049-2.396-2.049h-2.636v-2.899zm2.969-0.257h-3.225v3.412h2.892c0.626 0 1.783 0.802 2.245 2.109l0.079 0.222 0.144-0.187c0.512-0.668 0.567-1.556 0.567-1.906 0-0.068-0.035-0.395-0.081-0.815l-0.015-0.142c-0.147-1.425-1.58-2.693-2.606-2.693m-3.413-0.282h3.364c0.06 0.003 0.516 0.076 0.684 0.145 1.667 0.57 2.255 2.387 2.255 3.767 0 0.479-0.08 1.018-0.198 1.342l-0.064 0.145c-0.102 0.23-0.255 0.58-0.349 0.708l-0.067 0.065c-0.031 0.047-0.1 0.167-0.1 0.261 0 0.046 0 0.14 0.04 0.241 0.003 0.013 0.024 0.081 0.024 0.106 0.033 0.264 0.063 0.799 0.063 0.865 0 0.797-0.195 1.946-1.123 2.892-0.27 0.286-0.717 0.631-0.973 0.698-0.378 0.099-0.714 0.187-1.462 0.187h-2.094v-11.422zm3.366-0.258h-3.622v11.938h2.35c0.782 0 1.15-0.098 1.506-0.191 0.374-0.096 0.879-0.525 1.114-0.774 0.987-1.006 1.194-2.225 1.194-3.07 0-0.083-0.032-0.63-0.065-0.883 0.001-0.039-0.016-0.104-0.036-0.172-0.026-0.066-0.026-0.125-0.026-0.157 0.002-0.009 0.017-0.052 0.052-0.11l0.049-0.047c0.127-0.168 0.281-0.519 0.393-0.775l0.067-0.151c0.133-0.363 0.217-0.924 0.217-1.438 0-1.465-0.634-3.394-2.421-4.007-0.197-0.081-0.708-0.163-0.772-0.163"/></g><g id="g116" transform="matrix(2.3333 0 0 2.3333 272.31 67.991)"><path id="path118" fill="#fff" d="m0 0v-2.521h2.065l-2.065 2.521zm-0.477-3.06v11.642h0.461v-7.736l2.796-3.367h2.096v-0.539h-5.353z"/></g><g id="g120" transform="matrix(2.3333 0 0 2.3333 272.61 62.408)"><path id="path122" fill="#fff" d="m0 0h1.667l-1.667 2.033v-2.033zm2.208-0.257h-2.464v3.009l2.464-3.009zm-2.685-0.282h5.097v0.282h-2.028l-0.038 0.046-2.825 3.403v7.654h-0.206v-11.385zm5.353-0.256h-5.608v11.898h0.716v-7.818l2.729-3.285h2.163v-0.795z"/></g><g id="g124" transform="matrix(2.3333 0 0 2.3333 285.62 60.94)"><path id="path126" fill="#fff" d="m0 0v11.68h5.909v-0.539h-5.465v-2.963h5.084v-0.539h-5.084v-1.116h5.1v-0.519h-5.1v-0.982h5.035v-0.538h-5.035v-3.945h5.623v-0.539h-6.067z"/></g><g id="g128" transform="matrix(2.3333 0 0 2.3333 285.92 61.241)"><path id="path130" fill="#fff" d="m0 0h5.812v0.281h-5.624v4.202h5.036v0.283h-5.036v1.238h5.1v0.262h-5.1v1.373h5.084v0.282h-5.084v3.22h5.465v0.281h-5.653v-11.422zm6.067-0.257h-6.323v11.937h6.165v-0.796h-5.465v-2.706h5.084v-0.796h-5.084v-0.859h5.1v-0.777h-5.1v-0.725h5.035v-0.794h-5.035v-3.688h5.623v-0.796z"/></g></g></g></svg>
