<?xml version="1.0" encoding="UTF-8" standalone="no"?>
<!-- Created with Inkscape (http://www.inkscape.org/) -->
<svg id="svg2" xmlns:rdf="http://www.w3.org/1999/02/22-rdf-syntax-ns#" xmlns="http://www.w3.org/2000/svg" xml:space="preserve" height="420" viewBox="0 0 420 420" width="420" version="1.1" xmlns:cc="http://creativecommons.org/ns#" xmlns:dc="http://purl.org/dc/elements/1.1/"><metadata id="metadata8"><rdf:RDF><cc:Work rdf:about=""><dc:format>image/svg+xml</dc:format><dc:type rdf:resource="http://purl.org/dc/dcmitype/StillImage"/><dc:title/></cc:Work></rdf:RDF></metadata><g id="g10" transform="matrix(1.25,0,0,-1.25,0,420)"><path id="path12" d="m336 0h-336v336h336v-336z" fill="#231f20"/><g id="g4256" transform="matrix(1.2713 0 0 1.2868 -43.331 -45.41)"><g id="g22" transform="matrix(2.3333 0 0 2.3333 151.81 165.11)"><path id="path24" d="m0 0 4.619-17.775c3.816 6.328 5.422 13.256 5.422 18.378 0 5.322-1.707 11.648-5.723 16.569l-4.318-17.172zm-2.912-0.101 5.02 19.682c-4.016 6.327-18.477 8.135-25.305 8.135h-13.657v-55.331h21.49c5.925 0 11.346 1.004 17.272 6.528 0.1 0.4 0.301 0.502 0.301 1.004l-5.121 19.982zm-7.934-30.225h-28.82v60.853h16.469c0.402 0 4.519-0.301 6.628-0.502 8.234-0.602 18.778-2.611 25.205-13.959 0.803-1.405 1.907-3.513 2.51-5.221 1.206-3.414 1.708-7.632 1.708-10.242 0-8.737-3.516-22.093-14.561-27.815-2.209-1.205-6.628-3.114-9.139-3.114" fill="#fff"/></g><g id="g26" transform="matrix(2.3333 0 0 2.3333 228.66 209.5)"><path id="path28" d="m0 0v-49.347h-2.912v49.246h-21.991v2.831h46.694v-2.73h-21.791zm-24.903 11.932h46.694v-2.73h-46.694v2.73z" fill="#fff"/></g></g></g></svg>
