<?xml version="1.0" standalone="no"?>
<!DOCTYPE svg PUBLIC "-//W3C//DTD SVG 20010904//EN"
 "http://www.w3.org/TR/2001/REC-SVG-20010904/DTD/svg10.dtd">
<svg version="1.0" xmlns="http://www.w3.org/2000/svg"
 width="700.000000pt" height="700.000000pt" viewBox="0 0 700.000000 700.000000"
 preserveAspectRatio="xMidYMid meet">
<metadata>
Created by potrace 1.11, written by Peter Selinger 2001-2013
</metadata>
<g transform="translate(0.000000,700.000000) scale(0.100000,-0.100000)"
fill="#000000" stroke="none">
<path d="M0 3500 l0 -3500 3500 0 3500 0 0 3500 0 3500 -3500 0 -3500 0 0
-3500z m6500 1835 l0 -85 -1445 0 -1445 0 0 78 c0 43 3 82 7 85 3 4 654 7
1445 7 l1438 0 0 -85z m-4615 40 c580 -46 784 -87 1052 -215 344 -164 581
-406 777 -796 103 -206 153 -381 187 -658 15 -121 7 -387 -16 -536 -84 -555
-339 -1020 -705 -1286 -176 -128 -488 -265 -670 -294 -41 -6 -396 -10 -952
-10 l-888 0 0 1905 0 1905 513 0 c363 0 568 -4 702 -15z m4615 -620 l0 -85
-675 0 -675 0 0 -1545 0 -1546 -87 3 -88 3 -3 1537 -2 1538 -678 2 -677 3 -3
88 -3 87 1446 0 1445 0 0 -85z"/>
<path d="M840 3480 l0 -1732 768 5 c851 4 876 6 1077 72 174 57 317 139 477
273 80 67 88 78 88 119 0 14 -70 303 -156 642 l-156 617 151 599 c84 330 154
608 157 618 8 26 -143 173 -233 226 -159 94 -366 166 -628 219 -306 62 -348
65 -972 70 l-573 3 0 -1731z"/>
<path d="M3251 4016 l-133 -535 142 -553 c78 -304 143 -554 144 -555 5 -5 118
220 155 310 226 546 235 1067 27 1537 -42 92 -132 247 -178 303 l-23 28 -134
-535z"/>
</g>
</svg>
